<svg width="24" height="24" viewBox="0 0 19 31" fill="none" xmlns="http://www.w3.org/2000/svg">
<path d="M18.3948 0L6.25382 15.6445L18.3948 30.9375H10.7558L0.916684 18.5156C0.305561 17.793 0 16.8359 0 15.6445C0 15.0977 0.0746927 14.5801 0.224078 14.0918C0.387044 13.6035 0.604332 13.1836 0.875942 12.832L10.8372 0H18.3948Z" fill="url(#paint0_radial_7_81)"/>
<path d="M18.3948 0L6.25382 15.6445L18.3948 30.9375H10.7558L0.916684 18.5156C0.305561 17.793 0 16.8359 0 15.6445C0 15.0977 0.0746927 14.5801 0.224078 14.0918C0.387044 13.6035 0.604332 13.1836 0.875942 12.832L10.8372 0H18.3948Z" fill="url(#paint1_radial_7_81)"/>
<defs>
<radialGradient id="paint0_radial_7_81" cx="0" cy="0" r="1" gradientUnits="userSpaceOnUse" gradientTransform="translate(9.1974 15.4688) rotate(90.5791) scale(19.5322 22.3684)">
<stop stop-color="#39D353"/>
<stop offset="1" stop-color="#00F92A" stop-opacity="0"/>
</radialGradient>
<radialGradient id="paint1_radial_7_81" cx="0" cy="0" r="1" gradientUnits="userSpaceOnUse" gradientTransform="translate(9.1974 15.4688) rotate(90.5791) scale(19.5322 22.3684)">
<stop stop-color="#39D353"/>
<stop offset="1" stop-color="#00F92A" stop-opacity="0"/>
</radialGradient>
</defs>
</svg>
